<?xml version="1.0" encoding="UTF-8"?>
<svg width="32" height="32" viewBox="0 0 32 32" xmlns="http://www.w3.org/2000/svg">
  <!-- Security Shield with Honeypot Theme -->
  <defs>
    <linearGradient id="shieldGradient" x1="0%" y1="0%" x2="100%" y2="100%">
      <stop offset="0%" style="stop-color:#667eea;stop-opacity:1" />
      <stop offset="100%" style="stop-color:#764ba2;stop-opacity:1" />
    </linearGradient>
    <linearGradient id="honeyGradient" x1="0%" y1="0%" x2="100%" y2="100%">
      <stop offset="0%" style="stop-color:#ffd700;stop-opacity:1" />
      <stop offset="100%" style="stop-color:#ff8c00;stop-opacity:1" />
    </linearGradient>
  </defs>
  
  <!-- Shield Background -->
  <path d="M16 2 L26 6 L26 16 Q26 24 16 30 Q6 24 6 16 L6 6 Z" 
        fill="url(#shieldGradient)" 
        stroke="#4a5568" 
        stroke-width="1"/>
  
  <!-- Honeypot Symbol (Hexagon) -->
  <polygon points="16,8 20,10 20,14 16,16 12,14 12,10" 
           fill="url(#honeyGradient)" 
           stroke="#d69e2e" 
           stroke-width="0.5"/>
  
  <!-- Security Lock -->
  <rect x="13" y="18" width="6" height="6" 
        fill="#2d3748" 
        rx="1"/>
  <path d="M14 18 L14 16 Q14 14 16 14 Q18 14 18 16 L18 18" 
        fill="none" 
        stroke="#2d3748" 
        stroke-width="1.5"/>
  
  <!-- Alert Dots -->
  <circle cx="22" cy="10" r="2" fill="#e53e3e" opacity="0.8"/>
  <circle cx="10" cy="22" r="1.5" fill="#38a169" opacity="0.8"/>
</svg>
